<?xml version="1.0" encoding="utf-8"?>
<!-- Generator: Adobe Illustrator 16.2.1, SVG Export Plug-In . SVG Version: 6.00 Build 0)  -->
<!DOCTYPE svg PUBLIC "-//W3C//DTD SVG 1.1//EN" "http://www.w3.org/Graphics/SVG/1.1/DTD/svg11.dtd">
<svg version="1.1" id="Layer_1" xmlns="http://www.w3.org/2000/svg" xmlns:xlink="http://www.w3.org/1999/xlink" x="0px" y="0px"
	 width="144px" height="36px" viewBox="0 0 144 36" enable-background="new 0 0 144 36" xml:space="preserve">
<g>
	<g>
		<g>
			<path fill-rule="evenodd" clip-rule="evenodd" fill="#FFFFFF" d="M17.714,20.765c2.864-2.709,6.717-2.916,6.717-2.916
				s0.027,3.697-2.707,6.248c-2.995,2.812-6.666,2.812-6.666,2.812S14.901,23.394,17.714,20.765 M11.751,15.505
				C11.751,15.505,11.751,15.479,11.751,15.505c0.521,0.938,2.238,0.938,2.89,0c0.547,0.938,2.448,0.938,3.021,0
				c0.547,0.938,2.291,0.938,2.732,0c-0.703,2.578-2.785,4.375-5.702,4.375c-2.916,0-5.232-1.797-5.754-4.375
				C9.355,16.442,11.204,16.442,11.751,15.505z M5.059,17.849H5.007c0,0,3.646,0,6.666,2.838c2.89,2.707,2.682,6.197,2.682,6.197
				s-3.437,0.287-6.613-2.734C4.721,21.312,5.059,17.849,5.059,17.849z M14.667,8.761C14.641,8.839,14.641,8.761,14.667,8.761
				c3.828,0,5.963,2.812,5.937,5.832c0-0.025-4.947,0-4.947,0c0.442-0.234,1.016-0.832,1.016-1.588c0-1.119-0.938-1.85-1.979-1.85
				c-0.885,0-2.005,0.625-2.005,1.824c0,0.676,0.547,1.379,1.12,1.613c0,0-4.062,0-5.051,0C8.757,11.392,11.073,8.813,14.667,8.761z
				"/>
		</g>
		<g>
			<polyline fill-rule="evenodd" clip-rule="evenodd" fill="#FFFFFF" points="26.332,26.337 26.332,9.073 37.527,9.073 
				37.527,12.017 29.925,12.017 29.925,16.183 37.527,16.183 37.527,19.124 29.925,19.124 29.925,23.421 37.527,23.421 
				37.527,26.337 26.332,26.337 			"/>
			<path fill-rule="evenodd" clip-rule="evenodd" fill="#FFFFFF" d="M51.797,13.995c0-1.512-0.495-2.553-1.51-3.49
				c-1.042-1.016-2.423-1.406-4.661-1.406h-6.587v17.238h3.593v-7.213h3.02c1.979,0,3.438-0.182,4.453-1.041
				C51.224,17.093,51.797,15.661,51.797,13.995 M47.996,14.048c0,0.754-0.287,1.326-0.782,1.717
				c-0.494,0.443-1.302,0.418-2.499,0.418h-2.083v-4.166h2.421C47.084,12.017,47.996,12.433,47.996,14.048z"/>
			<path fill-rule="evenodd" clip-rule="evenodd" fill="#FFFFFF" d="M66.69,26.362L60.024,9.099h-4.478l-6.38,17.238h3.672
				l1.614-4.375h6.926l1.588,4.4H66.69 M60.285,19.021h-4.817l2.37-6.562L60.285,19.021z"/>
		</g>
	</g>
	<g>
		<path fill-rule="evenodd" clip-rule="evenodd" fill="#FFFFFF" d="M79.984,20.036h-0.846v-3.205h0.846V20.036z M79.984,16.407
			h-0.846v-0.779h0.846V16.407z"/>
		<rect x="107.16" y="15.628" fill="#FFFFFF" width="0.846" height="4.408"/>
		<path fill-rule="evenodd" clip-rule="evenodd" fill="#FFFFFF" d="M130.863,20.036h-0.846v-3.205h0.846V20.036z M130.863,16.407
			h-0.846v-0.779h0.846V16.407z"/>
		<path fill-rule="evenodd" clip-rule="evenodd" fill="#FFFFFF" d="M68.434,9.329h0.891v2.404c0,0.377,0,0.646,0.023,0.756
			c0.043,0.18,0.133,0.312,0.266,0.424c0.156,0.111,0.357,0.178,0.602,0.178s0.445-0.066,0.557-0.156
			c0.133-0.111,0.223-0.244,0.244-0.377c0.023-0.156,0.045-0.424,0.045-0.758V9.329h0.891v2.338c0,0.533-0.045,0.891-0.09,1.111
			c-0.045,0.225-0.133,0.402-0.266,0.557c-0.113,0.156-0.291,0.268-0.512,0.357c-0.225,0.111-0.49,0.154-0.848,0.154
			c-0.422,0-0.734-0.066-0.957-0.154c-0.223-0.09-0.4-0.223-0.512-0.379c-0.133-0.156-0.223-0.334-0.244-0.49
			c-0.066-0.266-0.09-0.623-0.09-1.135V9.329"/>
		<path fill-rule="evenodd" clip-rule="evenodd" fill="#FFFFFF" d="M75.578,13.759h-0.846V12.11c0-0.355,0-0.578-0.045-0.666
			c-0.043-0.111-0.088-0.201-0.178-0.246c-0.088-0.066-0.178-0.088-0.289-0.088c-0.156,0-0.289,0.043-0.4,0.111
			c-0.133,0.088-0.199,0.199-0.244,0.334c-0.045,0.133-0.066,0.377-0.066,0.734v1.469h-0.845v-3.205h0.777v0.467
			c0.289-0.379,0.646-0.557,1.068-0.557c0.178,0,0.355,0.023,0.512,0.09c0.156,0.088,0.268,0.156,0.357,0.266
			c0.066,0.113,0.133,0.225,0.156,0.357c0.043,0.133,0.043,0.334,0.043,0.578V13.759"/>
		<path fill-rule="evenodd" clip-rule="evenodd" fill="#FFFFFF" d="M77.092,13.759h-0.846v-3.205h0.846V13.759z M77.092,10.108
			h-0.846V9.329h0.846V10.108z"/>
		<path fill-rule="evenodd" clip-rule="evenodd" fill="#FFFFFF" d="M79.229,10.554v0.668H78.65v1.291c0,0.266,0,0.422,0,0.467
			c0.021,0.045,0.043,0.088,0.088,0.111c0.045,0.021,0.09,0.045,0.135,0.045c0.088,0,0.199-0.023,0.334-0.09l0.066,0.668
			c-0.178,0.09-0.4,0.133-0.645,0.133c-0.156,0-0.291-0.043-0.424-0.088c-0.111-0.045-0.201-0.111-0.268-0.201
			c-0.045-0.088-0.088-0.199-0.111-0.334c-0.021-0.088-0.021-0.289-0.021-0.6v-1.402h-0.402v-0.668h0.402V9.907l0.846-0.488v1.135
			H79.229"/>
		<path fill-rule="evenodd" clip-rule="evenodd" fill="#FFFFFF" d="M81.254,13.091c-0.088,0.066-0.199,0.09-0.334,0.09
			c-0.199,0-0.355-0.068-0.49-0.201c-0.133-0.133-0.199-0.334-0.199-0.578h2.137c0.021-0.668-0.111-1.158-0.4-1.469
			c-0.268-0.312-0.646-0.469-1.135-0.469c-0.424,0-0.779,0.156-1.047,0.445c-0.289,0.312-0.424,0.734-0.424,1.27
			c0,0.445,0.111,0.824,0.312,1.113c0.268,0.355,0.689,0.555,1.246,0.555c0.355,0,0.646-0.088,0.869-0.244
			c0.244-0.178,0.422-0.4,0.512-0.713l-0.846-0.133C81.41,12.913,81.344,13.024,81.254,13.091 M80.252,11.866
			c0-0.223,0.045-0.422,0.178-0.557c0.113-0.133,0.268-0.199,0.447-0.199c0.178,0,0.332,0.066,0.443,0.199
			c0.135,0.135,0.201,0.312,0.201,0.557H80.252z"/>
		<path fill-rule="evenodd" clip-rule="evenodd" fill="#FFFFFF" d="M85.795,9.329h-0.848v1.58c-0.266-0.289-0.576-0.445-0.934-0.445
			c-0.4,0-0.711,0.135-0.979,0.424c-0.246,0.289-0.379,0.713-0.379,1.246c0,0.535,0.133,0.957,0.379,1.246
			c0.268,0.312,0.6,0.467,0.955,0.467c0.18,0,0.357-0.066,0.535-0.154c0.18-0.09,0.334-0.223,0.469-0.4v0.467h0.801V9.329
			 M83.725,11.354c0.133-0.156,0.312-0.244,0.512-0.244c0.201,0,0.379,0.088,0.512,0.244s0.199,0.424,0.199,0.801
			c0,0.334-0.066,0.602-0.199,0.758c-0.133,0.178-0.311,0.244-0.512,0.244c-0.246,0-0.445-0.111-0.578-0.334
			c-0.09-0.154-0.135-0.4-0.135-0.734S83.592,11.511,83.725,11.354z"/>
		<path fill-rule="evenodd" clip-rule="evenodd" fill="#FFFFFF" d="M87.686,12.335l0.869-0.09c0.066,0.289,0.156,0.488,0.334,0.623
			c0.156,0.135,0.377,0.199,0.645,0.199c0.289,0,0.512-0.043,0.646-0.178c0.156-0.111,0.221-0.266,0.221-0.422
			c0-0.088-0.021-0.178-0.088-0.268c-0.066-0.066-0.178-0.133-0.334-0.178c-0.09-0.045-0.334-0.111-0.713-0.201
			c-0.467-0.109-0.801-0.266-1-0.443c-0.268-0.246-0.402-0.535-0.402-0.891c0-0.223,0.068-0.445,0.18-0.625
			c0.133-0.199,0.311-0.355,0.555-0.467c0.246-0.088,0.535-0.156,0.869-0.156c0.557,0,0.979,0.135,1.246,0.381
			c0.289,0.242,0.445,0.555,0.445,0.979l-0.891,0.021c-0.021-0.223-0.111-0.379-0.244-0.488c-0.111-0.09-0.312-0.135-0.557-0.135
			c-0.268,0-0.467,0.045-0.623,0.156c-0.09,0.066-0.133,0.156-0.133,0.268c0,0.109,0.043,0.199,0.133,0.266
			c0.111,0.09,0.379,0.201,0.824,0.312c0.422,0.09,0.756,0.199,0.957,0.311c0.199,0.111,0.377,0.268,0.488,0.445
			c0.111,0.201,0.178,0.424,0.178,0.713c0,0.244-0.066,0.49-0.223,0.713c-0.133,0.221-0.334,0.377-0.578,0.488
			c-0.268,0.111-0.578,0.178-0.979,0.178c-0.557,0-0.98-0.133-1.27-0.4C87.932,13.202,87.754,12.823,87.686,12.335"/>
		<path fill-rule="evenodd" clip-rule="evenodd" fill="#FFFFFF" d="M93.295,10.554v0.668h-0.578v1.291
			c0,0.266,0.021,0.422,0.021,0.467c0.021,0.045,0.043,0.088,0.066,0.111c0.045,0.021,0.09,0.045,0.156,0.045
			s0.178-0.023,0.334-0.09l0.066,0.668c-0.199,0.09-0.424,0.133-0.668,0.133c-0.154,0-0.289-0.043-0.4-0.088
			c-0.135-0.045-0.223-0.111-0.268-0.201c-0.066-0.088-0.088-0.199-0.109-0.334c-0.023-0.088-0.045-0.289-0.045-0.6v-1.402h-0.379
			v-0.668h0.379V9.907l0.846-0.488v1.135H93.295"/>
		<path fill-rule="evenodd" clip-rule="evenodd" fill="#FFFFFF" d="M94.52,11.198c0.088-0.066,0.199-0.088,0.355-0.088
			c0.223,0,0.379,0.043,0.467,0.111c0.09,0.066,0.111,0.178,0.111,0.355v0.066c-0.133,0.068-0.424,0.135-0.822,0.223
			c-0.291,0.045-0.512,0.111-0.668,0.201c-0.156,0.066-0.289,0.178-0.379,0.334c-0.066,0.133-0.111,0.289-0.111,0.488
			c0,0.268,0.09,0.49,0.268,0.668c0.199,0.178,0.467,0.289,0.801,0.289c0.178,0,0.355-0.043,0.512-0.111
			c0.178-0.066,0.334-0.178,0.467-0.334c0,0.023,0.023,0.068,0.045,0.111c0.023,0.113,0.045,0.18,0.066,0.246h0.846
			c-0.066-0.156-0.133-0.289-0.156-0.445c-0.021-0.133-0.043-0.334-0.043-0.623l0.021-0.979c0-0.379-0.043-0.623-0.111-0.779
			c-0.088-0.135-0.223-0.246-0.4-0.334c-0.178-0.09-0.467-0.135-0.846-0.135c-0.422,0-0.734,0.066-0.934,0.223
			c-0.223,0.156-0.357,0.379-0.445,0.691l0.756,0.133C94.363,11.354,94.43,11.267,94.52,11.198 M95.453,12.38
			c0,0.199,0,0.354-0.021,0.422c-0.045,0.111-0.111,0.201-0.201,0.289c-0.156,0.09-0.289,0.156-0.443,0.156
			c-0.135,0-0.246-0.045-0.334-0.135c-0.09-0.088-0.135-0.199-0.135-0.311c0-0.133,0.045-0.223,0.156-0.312
			c0.066-0.045,0.223-0.088,0.467-0.154c0.244-0.045,0.422-0.09,0.512-0.135V12.38z"/>
		<path fill-rule="evenodd" clip-rule="evenodd" fill="#FFFFFF" d="M98.391,10.554v0.668h-0.578v1.291c0,0.266,0,0.422,0,0.467
			c0.023,0.045,0.045,0.088,0.09,0.111c0.021,0.021,0.088,0.045,0.133,0.045c0.09,0,0.201-0.023,0.334-0.09l0.066,0.668
			c-0.199,0.09-0.4,0.133-0.645,0.133c-0.156,0-0.289-0.043-0.422-0.088c-0.113-0.045-0.201-0.111-0.27-0.201
			c-0.043-0.088-0.088-0.199-0.111-0.334c-0.021-0.088-0.021-0.289-0.021-0.6v-1.402h-0.4v-0.668h0.4V9.907l0.846-0.488v1.135
			H98.391"/>
		<path fill-rule="evenodd" clip-rule="evenodd" fill="#FFFFFF" d="M100.418,13.091c-0.09,0.066-0.201,0.09-0.334,0.09
			c-0.201,0-0.357-0.068-0.49-0.201c-0.135-0.133-0.201-0.334-0.201-0.578h2.137c0-0.668-0.111-1.158-0.4-1.469
			c-0.268-0.312-0.646-0.469-1.135-0.469c-0.424,0-0.779,0.156-1.047,0.445c-0.289,0.312-0.422,0.734-0.422,1.27
			c0,0.445,0.111,0.824,0.311,1.113c0.268,0.355,0.689,0.555,1.248,0.555c0.355,0,0.645-0.088,0.867-0.244
			c0.244-0.178,0.4-0.4,0.512-0.713l-0.846-0.133C100.572,12.913,100.506,13.024,100.418,13.091 M99.416,11.866
			c-0.023-0.223,0.043-0.422,0.178-0.557c0.111-0.133,0.266-0.199,0.445-0.199c0.178,0,0.334,0.066,0.443,0.199
			c0.135,0.135,0.201,0.312,0.201,0.557H99.416z"/>
		<path fill-rule="evenodd" clip-rule="evenodd" fill="#FFFFFF" d="M101.707,12.868l0.846-0.135c0.045,0.18,0.111,0.291,0.223,0.379
			c0.111,0.09,0.268,0.135,0.469,0.135c0.223,0,0.377-0.045,0.488-0.135c0.068-0.066,0.111-0.133,0.111-0.223
			c0-0.066-0.021-0.133-0.066-0.178c-0.045-0.043-0.133-0.066-0.268-0.111c-0.689-0.156-1.135-0.289-1.312-0.422
			c-0.268-0.178-0.379-0.4-0.379-0.713c0-0.289,0.111-0.533,0.334-0.711c0.201-0.201,0.557-0.291,1.023-0.291
			c0.445,0,0.758,0.066,0.98,0.201c0.223,0.154,0.355,0.355,0.445,0.623l-0.801,0.156c-0.045-0.111-0.113-0.223-0.201-0.291
			c-0.09-0.064-0.246-0.088-0.424-0.088c-0.221,0-0.377,0.023-0.488,0.088c-0.066,0.045-0.09,0.113-0.09,0.18
			s0.023,0.111,0.09,0.154c0.066,0.068,0.332,0.135,0.801,0.246c0.445,0.111,0.758,0.244,0.957,0.377
			c0.178,0.156,0.268,0.379,0.268,0.646c0,0.289-0.133,0.557-0.379,0.756c-0.244,0.223-0.602,0.334-1.09,0.334
			c-0.445,0-0.779-0.088-1.047-0.266C101.953,13.401,101.797,13.157,101.707,12.868"/>
		<polyline fill-rule="evenodd" clip-rule="evenodd" fill="#FFFFFF" points="68.434,20.036 68.434,15.628 71.708,15.628 
			71.708,16.362 69.325,16.362 69.325,17.343 71.551,17.343 71.551,18.099 69.325,18.099 69.325,19.3 71.795,19.3 71.795,20.036 
			68.434,20.036 		"/>
		<path fill-rule="evenodd" clip-rule="evenodd" fill="#FFFFFF" d="M75.246,20.036h-0.848v-1.648c0-0.334-0.021-0.557-0.045-0.668
			c-0.043-0.111-0.109-0.178-0.178-0.244c-0.088-0.045-0.178-0.068-0.311-0.068c-0.135,0-0.268,0.023-0.4,0.113
			c-0.111,0.088-0.201,0.178-0.223,0.311c-0.045,0.135-0.066,0.4-0.066,0.758v1.447h-0.845v-3.205h0.777v0.467
			c0.289-0.357,0.623-0.557,1.068-0.557c0.178,0,0.355,0.045,0.512,0.111s0.268,0.156,0.334,0.268
			c0.09,0.088,0.156,0.223,0.178,0.355c0.023,0.133,0.047,0.312,0.047,0.557V20.036"/>
		<path fill-rule="evenodd" clip-rule="evenodd" fill="#FFFFFF" d="M76.779,20.036l-1.289-3.205h0.891l0.6,1.646l0.178,0.533
			c0.045-0.133,0.09-0.223,0.09-0.266c0.021-0.09,0.066-0.18,0.09-0.268l0.623-1.646h0.867l-1.27,3.205H76.779"/>
		<path fill-rule="evenodd" clip-rule="evenodd" fill="#FFFFFF" d="M81.455,20.036h-0.848v-3.205h0.779v0.467
			c0.135-0.225,0.268-0.379,0.379-0.445s0.223-0.111,0.357-0.111c0.199,0,0.377,0.066,0.578,0.178l-0.268,0.734
			c-0.156-0.09-0.289-0.133-0.4-0.133c-0.135,0-0.223,0.021-0.312,0.088c-0.088,0.066-0.154,0.18-0.199,0.357
			s-0.066,0.533-0.066,1.09V20.036"/>
		<path fill-rule="evenodd" clip-rule="evenodd" fill="#FFFFFF" d="M82.855,19.345c0.135,0.246,0.334,0.445,0.602,0.578
			c0.268,0.135,0.557,0.201,0.846,0.201c0.467,0,0.869-0.156,1.18-0.49c0.312-0.312,0.467-0.711,0.467-1.201
			s-0.154-0.891-0.467-1.203c-0.311-0.311-0.713-0.488-1.18-0.488c-0.312,0-0.6,0.09-0.867,0.223c-0.246,0.133-0.445,0.334-0.58,0.6
			c-0.133,0.268-0.199,0.535-0.199,0.824C82.656,18.767,82.723,19.079,82.855,19.345 M83.748,17.698
			c0.133-0.178,0.332-0.244,0.555-0.244s0.402,0.066,0.557,0.244c0.135,0.178,0.223,0.424,0.223,0.734
			c0,0.334-0.088,0.578-0.223,0.734c-0.154,0.178-0.334,0.268-0.557,0.268s-0.422-0.09-0.555-0.268
			c-0.156-0.156-0.246-0.4-0.246-0.734C83.502,18.122,83.592,17.876,83.748,17.698z"/>
		<path fill-rule="evenodd" clip-rule="evenodd" fill="#FFFFFF" d="M89.334,20.036h-0.848v-1.648c0-0.334-0.021-0.557-0.066-0.668
			c-0.021-0.111-0.088-0.178-0.178-0.244c-0.066-0.045-0.178-0.068-0.289-0.068c-0.156,0-0.289,0.023-0.4,0.113
			c-0.111,0.088-0.201,0.178-0.244,0.311c-0.045,0.135-0.068,0.4-0.068,0.758v1.447h-0.846v-3.205h0.801v0.467
			c0.268-0.357,0.623-0.557,1.047-0.557c0.201,0,0.355,0.045,0.512,0.111s0.268,0.156,0.355,0.268
			c0.09,0.088,0.135,0.223,0.18,0.355c0.021,0.133,0.045,0.312,0.045,0.557V20.036"/>
		<path fill-rule="evenodd" clip-rule="evenodd" fill="#FFFFFF" d="M89.934,16.831h0.779v0.443c0.268-0.355,0.602-0.533,0.979-0.533
			c0.225,0,0.379,0.045,0.535,0.133c0.156,0.09,0.268,0.223,0.379,0.379c0.133-0.156,0.289-0.289,0.445-0.379
			c0.178-0.088,0.332-0.133,0.533-0.133c0.223,0,0.424,0.066,0.602,0.154c0.154,0.09,0.268,0.246,0.355,0.424
			c0.066,0.135,0.09,0.355,0.09,0.668v2.049h-0.846V18.21c0-0.334-0.023-0.535-0.09-0.623c-0.066-0.133-0.199-0.18-0.355-0.18
			c-0.135,0-0.246,0.023-0.334,0.09c-0.111,0.09-0.201,0.201-0.246,0.334c-0.043,0.135-0.066,0.355-0.066,0.668v1.537h-0.846v-1.76
			c0-0.311,0-0.512-0.045-0.602c-0.021-0.088-0.066-0.154-0.133-0.199s-0.156-0.068-0.268-0.068s-0.244,0.023-0.334,0.09
			c-0.109,0.066-0.178,0.178-0.223,0.312c-0.066,0.133-0.088,0.355-0.088,0.668v1.559h-0.824V16.831"/>
		<path fill-rule="evenodd" clip-rule="evenodd" fill="#FFFFFF" d="M96.922,19.366c-0.088,0.068-0.199,0.111-0.334,0.111
			c-0.199,0-0.355-0.066-0.488-0.199c-0.135-0.156-0.201-0.355-0.201-0.602h2.137c0.023-0.645-0.111-1.135-0.4-1.447
			c-0.266-0.311-0.646-0.488-1.135-0.488c-0.422,0-0.779,0.154-1.047,0.467c-0.289,0.289-0.424,0.713-0.424,1.246
			c0,0.445,0.113,0.824,0.312,1.113c0.268,0.377,0.689,0.557,1.246,0.557c0.357,0,0.646-0.088,0.869-0.244
			c0.244-0.156,0.422-0.402,0.512-0.713l-0.824-0.135C97.078,19.188,97.012,19.3,96.922,19.366 M95.922,18.165
			c0-0.244,0.043-0.424,0.178-0.557c0.111-0.133,0.266-0.201,0.467-0.201c0.156,0,0.312,0.047,0.445,0.18
			c0.111,0.133,0.178,0.334,0.178,0.578H95.922z"/>
		<path fill-rule="evenodd" clip-rule="evenodd" fill="#FFFFFF" d="M101.418,20.036h-0.846v-1.648c0-0.334-0.021-0.557-0.045-0.668
			c-0.045-0.111-0.109-0.178-0.178-0.244c-0.088-0.045-0.178-0.068-0.311-0.068c-0.135,0-0.268,0.023-0.4,0.113
			c-0.113,0.088-0.201,0.178-0.246,0.311c-0.021,0.135-0.045,0.4-0.045,0.758v1.447h-0.844v-3.205h0.777v0.467
			c0.289-0.357,0.623-0.557,1.068-0.557c0.178,0,0.357,0.045,0.512,0.111c0.156,0.066,0.268,0.156,0.334,0.268
			c0.09,0.088,0.156,0.223,0.178,0.355c0.023,0.133,0.045,0.312,0.045,0.557V20.036"/>
		<path fill-rule="evenodd" clip-rule="evenodd" fill="#FFFFFF" d="M103.555,16.831v0.689h-0.578v1.291c0,0.268,0,0.422,0,0.467
			c0.021,0.043,0.043,0.066,0.088,0.088c0.023,0.045,0.09,0.045,0.135,0.045c0.09,0,0.199-0.021,0.332-0.066l0.068,0.645
			c-0.201,0.09-0.424,0.135-0.668,0.135c-0.133,0-0.268-0.023-0.4-0.066c-0.111-0.068-0.201-0.135-0.268-0.201
			c-0.045-0.088-0.088-0.201-0.111-0.334c-0.021-0.111-0.021-0.311-0.021-0.6v-1.402h-0.4v-0.689h0.4v-0.646l0.846-0.49v1.137
			H103.555"/>
		<path fill-rule="evenodd" clip-rule="evenodd" fill="#FFFFFF" d="M104.779,17.497c0.066-0.066,0.199-0.09,0.355-0.09
			c0.223,0,0.379,0.023,0.445,0.09c0.09,0.066,0.135,0.201,0.135,0.355v0.09c-0.156,0.066-0.445,0.133-0.824,0.201
			c-0.311,0.066-0.535,0.133-0.691,0.199c-0.154,0.09-0.266,0.201-0.355,0.334c-0.088,0.156-0.133,0.312-0.133,0.49
			c0,0.289,0.09,0.512,0.289,0.689c0.178,0.18,0.445,0.268,0.779,0.268c0.178,0,0.355-0.045,0.533-0.111
			c0.156-0.068,0.312-0.178,0.445-0.311c0.021,0.021,0.021,0.043,0.045,0.088c0.021,0.111,0.045,0.199,0.066,0.246h0.846
			c-0.066-0.135-0.111-0.291-0.156-0.424c-0.021-0.135-0.021-0.334-0.021-0.623v-1.002c0-0.355-0.043-0.623-0.111-0.758
			c-0.066-0.133-0.199-0.244-0.4-0.355c-0.178-0.088-0.467-0.133-0.846-0.133c-0.4,0-0.713,0.09-0.934,0.223
			c-0.201,0.156-0.357,0.4-0.445,0.689l0.756,0.156C104.623,17.653,104.689,17.542,104.779,17.497 M105.715,18.677
			c0,0.201-0.023,0.334-0.045,0.402c-0.023,0.109-0.09,0.221-0.201,0.287c-0.133,0.111-0.289,0.156-0.445,0.156
			c-0.133,0-0.244-0.045-0.334-0.133c-0.088-0.09-0.133-0.178-0.133-0.311c0-0.113,0.045-0.225,0.156-0.291
			c0.088-0.066,0.244-0.111,0.467-0.156c0.244-0.066,0.422-0.088,0.535-0.133V18.677z"/>
		<path fill-rule="evenodd" clip-rule="evenodd" fill="#FFFFFF" d="M111.078,20.036v-1.648h0.578c0.424,0,0.734-0.023,0.936-0.066
			c0.178-0.045,0.334-0.111,0.488-0.223c0.135-0.09,0.268-0.246,0.379-0.424c0.09-0.199,0.133-0.422,0.133-0.689
			c0-0.355-0.088-0.645-0.244-0.869c-0.178-0.221-0.4-0.355-0.645-0.422c-0.18-0.045-0.535-0.066-1.068-0.066h-1.447v4.408H111.078
			 M111.521,16.362c0.312,0,0.535,0.021,0.646,0.045c0.156,0.021,0.268,0.09,0.355,0.178c0.111,0.111,0.156,0.246,0.156,0.4
			c0,0.135-0.045,0.268-0.111,0.357c-0.066,0.088-0.154,0.178-0.289,0.221c-0.111,0.045-0.355,0.068-0.713,0.068h-0.488v-1.27
			H111.521z"/>
		<path fill-rule="evenodd" clip-rule="evenodd" fill="#FFFFFF" d="M114.906,20.036h-0.846v-3.205h0.779v0.467
			c0.133-0.225,0.266-0.379,0.377-0.445s0.223-0.111,0.355-0.111c0.201,0,0.381,0.066,0.557,0.178l-0.244,0.734
			c-0.156-0.09-0.289-0.133-0.4-0.133c-0.133,0-0.223,0.021-0.312,0.088c-0.088,0.066-0.154,0.18-0.199,0.357
			s-0.066,0.533-0.066,1.09V20.036"/>
		<path fill-rule="evenodd" clip-rule="evenodd" fill="#FFFFFF" d="M116.309,19.345c0.133,0.246,0.332,0.445,0.6,0.578
			c0.268,0.135,0.557,0.201,0.846,0.201c0.469,0,0.869-0.156,1.18-0.49c0.312-0.312,0.467-0.711,0.467-1.201
			s-0.154-0.891-0.467-1.203c-0.311-0.311-0.711-0.488-1.18-0.488c-0.311,0-0.602,0.09-0.867,0.223
			c-0.246,0.133-0.445,0.334-0.578,0.6c-0.135,0.268-0.223,0.535-0.223,0.824C116.086,18.767,116.174,19.079,116.309,19.345
			 M117.197,17.698c0.135-0.178,0.334-0.244,0.557-0.244c0.201,0,0.4,0.066,0.535,0.244c0.154,0.178,0.244,0.424,0.244,0.734
			c0,0.334-0.09,0.578-0.244,0.734c-0.135,0.178-0.334,0.268-0.535,0.268c-0.223,0-0.422-0.09-0.557-0.268
			c-0.154-0.156-0.244-0.4-0.244-0.734C116.953,18.122,117.043,17.876,117.197,17.698z"/>
		<path fill-rule="evenodd" clip-rule="evenodd" fill="#FFFFFF" d="M121.338,16.831v0.689h-0.578v1.291c0,0.268,0,0.422,0,0.467
			c0.021,0.043,0.043,0.066,0.088,0.088c0.045,0.045,0.09,0.045,0.133,0.045c0.09,0,0.201-0.021,0.334-0.066l0.068,0.645
			c-0.178,0.09-0.402,0.135-0.646,0.135c-0.154,0-0.289-0.023-0.422-0.066c-0.111-0.068-0.201-0.135-0.268-0.201
			c-0.045-0.088-0.088-0.201-0.111-0.334c-0.021-0.111-0.021-0.311-0.021-0.6v-1.402h-0.402v-0.689h0.402v-0.646l0.846-0.49v1.137
			H121.338"/>
		<path fill-rule="evenodd" clip-rule="evenodd" fill="#FFFFFF" d="M123.363,19.366c-0.09,0.068-0.199,0.111-0.334,0.111
			c-0.199,0-0.355-0.066-0.488-0.199c-0.135-0.156-0.201-0.355-0.201-0.602h2.137c0.021-0.645-0.113-1.135-0.402-1.447
			c-0.266-0.311-0.645-0.488-1.135-0.488c-0.422,0-0.777,0.154-1.045,0.467c-0.289,0.289-0.424,0.713-0.424,1.246
			c0,0.445,0.111,0.824,0.312,1.113c0.268,0.377,0.689,0.557,1.246,0.557c0.355,0,0.645-0.088,0.867-0.244
			c0.246-0.156,0.424-0.402,0.512-0.713l-0.846-0.135C123.52,19.188,123.453,19.3,123.363,19.366 M122.361,18.165
			c-0.021-0.244,0.045-0.424,0.18-0.557c0.109-0.133,0.266-0.201,0.443-0.201c0.18,0,0.334,0.047,0.445,0.18
			c0.133,0.133,0.201,0.334,0.201,0.578H122.361z"/>
		<path fill-rule="evenodd" clip-rule="evenodd" fill="#FFFFFF" d="M127.748,17.765l-0.846,0.156c-0.023-0.18-0.09-0.289-0.18-0.379
			c-0.111-0.088-0.244-0.111-0.4-0.111c-0.199,0-0.377,0.066-0.512,0.201c-0.111,0.156-0.178,0.4-0.178,0.756
			c0,0.379,0.066,0.645,0.178,0.801c0.135,0.156,0.312,0.246,0.535,0.246c0.156,0,0.289-0.045,0.4-0.135
			c0.09-0.111,0.178-0.268,0.199-0.488l0.848,0.133c-0.09,0.4-0.268,0.689-0.514,0.891c-0.244,0.201-0.557,0.289-0.979,0.289
			c-0.467,0-0.846-0.156-1.113-0.445c-0.289-0.289-0.422-0.713-0.422-1.246c0-0.535,0.133-0.936,0.422-1.246
			c0.268-0.291,0.646-0.445,1.135-0.445c0.379,0,0.691,0.09,0.912,0.268C127.48,17.165,127.637,17.431,127.748,17.765"/>
		<path fill-rule="evenodd" clip-rule="evenodd" fill="#FFFFFF" d="M129.639,16.831v0.689h-0.578v1.291c0,0.268,0,0.422,0.023,0.467
			c0,0.043,0.043,0.066,0.066,0.088c0.043,0.045,0.088,0.045,0.154,0.045c0.068,0,0.178-0.021,0.334-0.066l0.068,0.645
			c-0.201,0.09-0.424,0.135-0.668,0.135c-0.156,0-0.289-0.023-0.4-0.066c-0.135-0.068-0.223-0.135-0.268-0.201
			c-0.066-0.088-0.09-0.201-0.111-0.334c-0.023-0.111-0.045-0.311-0.045-0.6v-1.402h-0.379v-0.689h0.379v-0.646l0.846-0.49v1.137
			H129.639"/>
		<path fill-rule="evenodd" clip-rule="evenodd" fill="#FFFFFF" d="M131.553,19.345c0.135,0.246,0.334,0.445,0.602,0.578
			c0.268,0.135,0.557,0.201,0.846,0.201c0.467,0,0.869-0.156,1.18-0.49c0.311-0.312,0.467-0.711,0.467-1.201
			s-0.156-0.891-0.467-1.203c-0.311-0.311-0.713-0.488-1.18-0.488c-0.334,0-0.602,0.09-0.867,0.223
			c-0.246,0.133-0.445,0.334-0.58,0.6c-0.133,0.268-0.221,0.535-0.221,0.824C131.332,18.767,131.42,19.079,131.553,19.345
			 M132.422,17.698c0.156-0.178,0.355-0.244,0.557-0.244c0.221,0,0.422,0.066,0.557,0.244c0.154,0.178,0.221,0.424,0.221,0.734
			c0,0.334-0.066,0.578-0.221,0.734c-0.135,0.178-0.336,0.268-0.557,0.268c-0.201,0-0.4-0.09-0.557-0.268
			c-0.133-0.156-0.225-0.4-0.225-0.734C132.197,18.122,132.289,17.876,132.422,17.698z"/>
		<path fill-rule="evenodd" clip-rule="evenodd" fill="#FFFFFF" d="M138.029,20.036h-0.846v-1.648c0-0.334-0.021-0.557-0.066-0.668
			s-0.09-0.178-0.178-0.244c-0.09-0.045-0.178-0.068-0.289-0.068c-0.156,0-0.289,0.023-0.4,0.113
			c-0.111,0.088-0.201,0.178-0.246,0.311c-0.043,0.135-0.066,0.4-0.066,0.758v1.447h-0.846v-3.205h0.779v0.467
			c0.289-0.357,0.645-0.557,1.068-0.557c0.178,0,0.355,0.045,0.512,0.111s0.268,0.156,0.355,0.268
			c0.068,0.088,0.135,0.223,0.156,0.355c0.045,0.133,0.045,0.312,0.045,0.557L138.029,20.036"/>
		<path fill-rule="evenodd" clip-rule="evenodd" fill="#FFFFFF" d="M70.637,21.903H69.68l-1.713,4.43h0.957l0.379-1h1.781l0.377,1
			h0.957L70.637,21.903 M69.569,24.575l0.602-1.646l0.623,1.646H69.569z"/>
		<path fill-rule="evenodd" clip-rule="evenodd" fill="#FFFFFF" d="M72.596,26.646c0,0.289,0.111,0.533,0.334,0.711
			c0.222,0.201,0.623,0.289,1.158,0.289c0.289,0,0.533-0.043,0.734-0.088c0.178-0.066,0.334-0.156,0.445-0.268
			s0.199-0.244,0.268-0.445c0.066-0.178,0.088-0.467,0.088-0.846v-2.871h-0.801v0.424c-0.244-0.334-0.578-0.512-0.979-0.512
			c-0.379,0-0.713,0.133-0.957,0.422c-0.268,0.289-0.402,0.713-0.402,1.246c0,0.424,0.111,0.779,0.289,1.068
			c0.267,0.379,0.601,0.557,1.025,0.557c0.4,0,0.711-0.178,0.979-0.533v0.467c0,0.201-0.021,0.334-0.045,0.4
			c-0.021,0.111-0.088,0.178-0.154,0.223c-0.111,0.066-0.289,0.111-0.514,0.111c-0.178,0-0.311-0.045-0.377-0.111
			c-0.066-0.045-0.111-0.111-0.111-0.223l-0.98-0.111C72.596,26.601,72.596,26.622,72.596,26.646 M73.553,23.929
			c0.135-0.156,0.312-0.244,0.512-0.244c0.201,0,0.379,0.088,0.514,0.244c0.133,0.156,0.223,0.424,0.223,0.758
			c0,0.312-0.09,0.557-0.223,0.711c-0.156,0.178-0.334,0.246-0.535,0.246c-0.199,0-0.355-0.068-0.49-0.223
			c-0.133-0.178-0.199-0.422-0.199-0.756S73.42,24.085,73.553,23.929z"/>
		<path fill-rule="evenodd" clip-rule="evenodd" fill="#FFFFFF" d="M77.893,25.665c-0.088,0.066-0.199,0.111-0.334,0.111
			c-0.199,0-0.355-0.088-0.49-0.223c-0.133-0.133-0.199-0.334-0.199-0.578h2.137c0.021-0.668-0.111-1.135-0.4-1.469
			c-0.268-0.312-0.645-0.467-1.135-0.467c-0.424,0-0.779,0.154-1.047,0.443c-0.289,0.312-0.422,0.736-0.422,1.27
			c0,0.445,0.111,0.822,0.311,1.113c0.268,0.355,0.691,0.557,1.246,0.557c0.357,0,0.646-0.09,0.869-0.246
			c0.244-0.178,0.422-0.4,0.512-0.711l-0.824-0.133C78.049,25.487,77.982,25.599,77.893,25.665 M76.893,24.44
			c0-0.221,0.043-0.422,0.176-0.555c0.113-0.135,0.27-0.201,0.469-0.201c0.156,0,0.312,0.066,0.445,0.201
			c0.111,0.133,0.178,0.311,0.178,0.555H76.893z"/>
		<path fill-rule="evenodd" clip-rule="evenodd" fill="#FFFFFF" d="M82.389,26.333h-0.846v-1.646c0-0.355-0.021-0.58-0.043-0.668
			c-0.045-0.111-0.113-0.201-0.18-0.246c-0.088-0.064-0.199-0.088-0.311-0.088c-0.133,0-0.268,0.045-0.402,0.133
			c-0.109,0.068-0.199,0.18-0.244,0.312s-0.045,0.379-0.045,0.734v1.469h-0.846v-3.205h0.779v0.467
			c0.291-0.377,0.625-0.555,1.047-0.555c0.201,0,0.379,0.021,0.535,0.111c0.154,0.066,0.266,0.133,0.332,0.244
			c0.09,0.111,0.135,0.223,0.178,0.355c0.023,0.135,0.045,0.334,0.045,0.58V26.333"/>
		<path fill-rule="evenodd" clip-rule="evenodd" fill="#FFFFFF" d="M85.84,24.063l-0.824,0.133c-0.021-0.154-0.09-0.289-0.201-0.355
			c-0.088-0.09-0.223-0.133-0.377-0.133c-0.223,0-0.4,0.064-0.512,0.221c-0.135,0.156-0.201,0.402-0.201,0.736
			c0,0.377,0.066,0.668,0.201,0.822c0.133,0.156,0.289,0.223,0.512,0.223c0.154,0,0.289-0.045,0.4-0.135
			c0.109-0.088,0.178-0.242,0.223-0.488l0.822,0.156c-0.088,0.379-0.244,0.668-0.49,0.867c-0.244,0.201-0.578,0.312-1,0.312
			c-0.467,0-0.824-0.156-1.113-0.445c-0.289-0.312-0.424-0.713-0.424-1.246c0-0.535,0.135-0.959,0.424-1.248
			s0.668-0.443,1.135-0.443c0.4,0,0.713,0.088,0.936,0.244C85.57,23.462,85.75,23.708,85.84,24.063"/>
		<path fill-rule="evenodd" clip-rule="evenodd" fill="#FFFFFF" d="M85.883,23.128h0.891l0.756,2.27l0.736-2.27h0.889L88.02,26.2
			l-0.201,0.578c-0.064,0.178-0.133,0.334-0.199,0.424c-0.066,0.088-0.156,0.178-0.244,0.244c-0.09,0.066-0.18,0.111-0.312,0.135
			c-0.133,0.043-0.266,0.064-0.443,0.064c-0.156,0-0.312-0.021-0.469-0.064l-0.066-0.668c0.133,0.021,0.266,0.043,0.355,0.043
			c0.201,0,0.334-0.066,0.422-0.178c0.113-0.111,0.18-0.246,0.225-0.424L85.883,23.128"/>
	</g>
</g>
</svg>
